<svg xmlns="http://www.w3.org/2000/svg" viewBox="0 0 24 24" role="img" aria-label="LINE">
  <rect x="2.5" y="3.2" width="19" height="17.6" rx="8.8" fill="#06C755"/>
  <path fill="#fff" d="M12 6.8c-4.05 0-7.34 2.56-7.34 5.71 0 2.82 2.58 5.18 6.07 5.63.24.05.56.16.64.37.07.19.04.48.02.67l-.1.64c-.03.19-.15.75.64.41.79-.34 4.26-2.51 5.82-4.3 1.08-1.18 1.59-2.36 1.59-3.42 0-3.15-3.29-5.71-7.34-5.71Z"/>
  <path fill="#06C755" d="M8.05 10.64v3.23h2.06v-.74H8.9v-2.49h-.85Zm2.55 0v3.23h.85v-3.23h-.85Zm1.43 0v3.23h.81v-1.91l1.48 1.91h.73v-3.23h-.81v1.86l-1.44-1.86h-.77Zm3.69 0v3.23h2.12v-.72h-1.27v-.57h1.12v-.7h-1.12v-.52h1.27v-.72h-2.12Z"/>
</svg>
